Coordinates
version=1
nRows=12
nColumns=34
inDegrees=no

Units are S.I. units (second, meters, Newtons, ...)
If the header above contains a line with 'inDegrees', this indicates whether rotational values are in degrees (yes) or radians (no).

endheader
time	pelvis_tilt	pelvis_list	pelvis_rotation	pelvis_tx	pelvis_ty	pelvis_tz	hip_flexion_r	hip_adduction_r	hip_rotation_r	knee_angle_r	ankle_angle_r	subtalar_angle_r	mtp_angle_r	hip_flexion_l	hip_adduction_l	hip_rotation_l	knee_angle_l	ankle_angle_l	subtalar_angle_l	mtp_angle_l	lumbar_extension	lumbar_bending	lumbar_rotation	arm_flex_r	arm_add_r	arm_rot_r	elbow_flex_r	pro_sup_r	arm_flex_l	arm_add_l	arm_rot_l	elbow_flex_l	pro_sup_l
1.91	-0.0311741	-0.010472	-0.0226202	-0.106472	1.27428	-0.610027	0.333575	-0.153035	-0.182496	0.489873	-0.171809	-0.0796883	-0.144634	0.186089	-0.0635239	-0.258263	0.253945	-0.294267	-0.153374	-0.144887	-0.377501	0.0616357	0.0541624	0.201728	-0.268679	0.147148	0.570881	1.31551	0.277998	-0.186375	0.524328	0.719062	1.60849
1.92	-0.0370295	-0.0112802	-0.0222359	-0.105	1.26895	-0.609305	0.335798	-0.150373	-0.176217	0.476554	-0.160129	-0.0705625	-0.144634	0.193252	-0.0697211	-0.248984	0.255951	-0.291684	-0.145809	-0.144887	-0.370117	0.0601528	0.0494682	0.197775	-0.261801	0.145706	0.58713	1.31622	0.272235	-0.185945	0.517222	0.715095	1.6052
1.93	-0.0432751	-0.0115741	-0.0211853	-0.103497	1.26256	-0.608583	0.338281	-0.148679	-0.170781	0.464326	-0.148604	-0.0573844	-0.144634	0.201263	-0.0757984	-0.240885	0.259672	-0.284502	-0.13482	-0.144888	-0.361684	0.0581032	0.0433853	0.195264	-0.255549	0.146668	0.603029	1.31986	0.267722	-0.187225	0.512479	0.711316	1.60083
1.94	-0.0497705	-0.0115333	-0.0196656	-0.101972	1.25513	-0.60785	0.340839	-0.147636	-0.166061	0.452943	-0.135713	-0.040261	-0.144633	0.209859	-0.0820135	-0.234922	0.264776	-0.272327	-0.121038	-0.144888	-0.352464	0.0556644	0.0362711	0.194139	-0.250012	0.149999	0.618802	1.32663	0.264445	-0.190118	0.510085	0.708014	1.59548
1.95	-0.05636	-0.0113617	-0.0179145	-0.10044	1.24669	-0.607094	0.343307	-0.146939	-0.161953	0.442177	-0.120546	-0.0196413	-0.144633	0.218834	-0.0886084	-0.231753	0.271095	-0.255498	-0.105441	-0.144889	-0.342767	0.0529671	0.028543	0.194333	-0.24524	0.155302	0.634753	1.33637	0.262399	-0.194447	0.509769	0.705414	1.5894
1.96	-0.0629123	-0.0112176	-0.0161835	-0.0989188	1.23725	-0.606298	0.345563	-0.146311	-0.158404	0.431866	-0.102951	0.00369473	-0.144633	0.228054	-0.0958056	-0.231681	0.278617	-0.234864	-0.0892355	-0.144889	-0.332928	0.0501108	0.0206413	0.195775	-0.24124	0.161921	0.651231	1.34849	0.261592	-0.199997	0.511089	0.703682	1.58307
1.97	-0.0693156	-0.0112239	-0.0147074	-0.0974315	1.22683	-0.605448	0.347565	-0.145509	-0.155415	0.421942	-0.0835423	0.0287026	-0.144633	0.237495	-0.103808	-0.234687	0.287478	-0.211543	-0.0736579	-0.14489	-0.323262	0.0471663	0.0129883	0.198386	-0.237982	0.16907	0.66861	1.36213	0.262041	-0.206544	0.513509	0.702934	1.57725
1.98	-0.0755071	-0.0114806	-0.0136738	-0.0960018	1.21543	-0.604528	0.349394	-0.144344	-0.153061	0.41247	-0.063556	0.0541839	-0.144633	0.24728	-0.112801	-0.240517	0.29794	-0.186722	-0.0597458	-0.14489	-0.314016	0.044186	0.00595176	0.202085	-0.235419	0.175957	0.687255	1.3763	0.263766	-0.213879	0.516492	0.703261	1.57283
1.99	-0.0815001	-0.0120641	-0.0132011	-0.0946621	1.20306	-0.603529	0.351276	-0.142699	-0.151495	0.403667	-0.0446007	0.0789212	-0.144633	0.257696	-0.122949	-0.248794	0.310352	-0.161548	-0.0481353	-0.14489	-0.305332	0.0412134	-0.000181825	0.206781	-0.233503	0.181884	0.707501	1.39022	0.266795	-0.221827	0.519586	0.704767	1.57066
2	-0.0873863	-0.0130195	-0.0133276	-0.0934449	1.18971	-0.602448	0.353571	-0.140549	-0.150941	0.395898	-0.0283641	0.101789	-0.144632	0.269161	-0.134371	-0.259083	0.325062	-0.137125	-0.0389782	-0.144891	-0.297249	0.0382844	-0.00522502	0.212377	-0.232208	0.186327	0.729646	1.40343	0.271157	-0.230252	0.522457	0.707604	1.5714
2.01	-0.0933091	-0.0143464	-0.0140129	-0.0923824	1.17537	-0.601291	0.356728	-0.137976	-0.151672	0.38965	-0.0163497	0.121828	-0.144632	0.282143	-0.147098	-0.270917	0.342316	-0.114599	-0.0319892	-0.144891	-0.289732	0.0354194	-0.00909811	0.218784	-0.231536	0.188981	0.753958	1.41566	0.276887	-0.239059	0.524882	0.711993	1.57546
2.02	-0.0994218	-0.0159827	-0.0151438	-0.0915075	1.16001	-0.600077	0.361213	-0.135179	-0.153989	0.385496	-0.00967715	0.138309	-0.144632	0.297068	-0.161027	-0.283782	0.362173	-0.0952197	-0.0265488	-0.144892	-0.282721	0.0326187	-0.0118292	0.225942	-0.231521	0.189748	0.780683	1.42678	0.284027	-0.248177	0.526715	0.718239	1.58278
